# xmcd CD database file
#
# Track frame offsets:
#	150
#	39175
#	53504
#	76792
#	120616
#	147426
#	164405
#	193965
#	220348
#	244301
#	262655
#
# Disc length: 3711 seconds
#
# Revision: 0
# Processed by: cddbd v1.5.1PL2 Copyright (c) Steve Scherf et al.
# Submitted via: CDex 1.50
#
DISCID=930e7d0b
DTITLE=Buddy Rich - Argo, Emarcy and Verve Small Group Sessions Disc 7
DYEAR=2006
DGENRE=Jazz
TTITLE0=Blowin' The Blue Away
TTITLE1=B.R. Blues
TTITLE2=Late Date
TTITLE3=Caravan
TTITLE4=Young Blood
TTITLE5=I Remember Clifford
TTITLE6=Rose Room
TTITLE7=Satin Doll
TTITLE8=Love Come Back To Me
TTITLE9=Afghan
TTITLE10=If I Were A Bell
EXTD=YEAR: 2006
EXTT0=
EXTT1=
EXTT2=
EXTT3=
EXTT4=
EXTT5=
EXTT6=
EXTT7=
EXTT8=
EXTT9=
EXTT10=
PLAYORDER=
